<?xml version="1.0" encoding="utf-8"?>
<!-- Generator: Adobe Illustrator 25.0.0, SVG Export Plug-In . SVG Version: 6.00 Build 0)  -->
<svg version="1.1" id="Layer_1" xmlns="http://www.w3.org/2000/svg" xmlns:xlink="http://www.w3.org/1999/xlink" x="0px" y="0px"
	 viewBox="0 0 155.76 100" style="enable-background:new 0 0 155.76 100;" xml:space="preserve">
<style type="text/css">
	.st0{fill-rule:evenodd;clip-rule:evenodd;fill:#574217;}
	.st1{fill:#574217;}
</style>
<g>
	<path class="st0" d="M108.66,37.88c-0.21,0.02-1.48-0.34-3.79-1.09c-2.33-0.74-4.47-2.01-6.43-3.79c-0.04,0.05,0.01,0.48,0.13,1.3
		c0.11,0.82,0.48,1.67,1.11,2.57H86.65c-0.16-0.4-0.35-0.74-0.57-1.02c-0.05-0.63,0.13-1.58,0.55-2.85c0.4-1.27,1.2-2.95,2.4-5.04
		c0.85-0.29,1.64-0.43,2.36-0.41c1.92,0.23,2.95,0.45,3.07,0.68c-0.93,0.6-1.72,1.35-2.38,2.25c-0.64,0.88-0.97,1.36-1,1.45
		l2.45,1.53c0.02-1.08,0.47-2.14,1.34-3.17c0.87-1.02,1.37-1.57,1.51-1.64c-0.33-1.27-1.03-2.26-2.09-2.96
		c-1.06-0.7-1.95-1.16-2.68-1.38c0.42-0.69,1.15-1.09,2.19-1.21c0.88-0.06,1.96,0.52,3.24,1.73c0,0.08,0.23,0.36,0.7,0.85
		c0.48,0.5,1.14,0.79,1.98,0.85c0.7,0.05,1.52-0.33,2.43-1.13c-0.09-0.1-0.35-0.73-0.79-1.89c-0.45-1.17-0.57-2.28-0.34-3.34
		c0.36-0.92,1.36-1.41,2.98-1.49c0.1,0,0.2,0,0.3,0c0.1,0,0.19,0,0.26,0c1.06-0.06,1.72-0.3,1.98-0.72
		c0.28-0.43,0.39-0.67,0.34-0.74c0.06,0.19-0.57,0.37-1.9,0.55c-0.45,0.01-1.01-0.06-1.66-0.21c-0.06-0.06-0.52-0.12-1.36-0.17
		c-0.16-0.01-0.33-0.01-0.51,0.02c0.05-0.2,0.28-0.47,0.7-0.79c0.43-0.33,1.16-0.52,2.21-0.58c1.23-0.09,1.99-0.33,2.28-0.74
		c0.29-0.41,0.41-0.65,0.36-0.7c0.01,0.02-0.16,0.14-0.53,0.36c-0.38,0.21-1.01,0.34-1.91,0.38c-0.36,0-0.79-0.04-1.28-0.11
		c-0.04-0.02-0.37-0.05-1-0.08c-1.08-0.11-2.08,0.3-3,1.23c-0.01-0.18-1.06-0.9-3.15-2.19c-2.07-1.28-5.12-2.06-9.13-2.34
		c0,0-0.09,0-0.26,0c-0.42-0.04-1.13,0.08-2.13,0.34c-0.99,0.25-2.1,0.86-3.32,1.81c-0.13,0.06-1.68,0.65-4.66,1.77
		c-2.99,1.12-6.69,2.34-11.11,3.66c0-0.01-0.01-0.02-0.02-0.02c-0.11,0.04-0.23,0.08-0.36,0.13c-0.13,0.04-0.26,0.08-0.4,0.11v0.02
		c-1.29,0.44-2.42,0.68-3.38,0.74c-0.63,0.03-0.93-0.19-0.9-0.64c0.28-0.7,0.7-1.53,1.26-2.49c0.37-0.92,0.43-1.64,0.21-2.17
		c-0.24-0.53-0.58-0.98-1.02-1.36c-0.35-0.3-0.82-0.61-1.4-0.92c-0.58-0.33-1.04-0.7-1.38-1.11c-0.3,1.35-0.22,2.34,0.25,2.98
		c0.45,0.64,1.12,1.16,2.02,1.56c0.15,0.1,0.26,0.3,0.34,0.58c0.05,0.52-0.03,0.9-0.23,1.15c-0.19,0.25-0.43,0.58-0.74,0.98
		c-0.67,1.19-0.51,2.06,0.47,2.6c0.57,0.26,1.26,0.4,2.07,0.4c0.94-0.01,1.84-0.16,2.7-0.45c0.1,0.08,0.2,0.93,0.3,2.57
		c0.11,1.65-0.38,3.65-1.47,6l0.7,6.77h-2.15l-3.19-4.17H43.86c-0.04,0.15,0.43,0.89,1.41,2.21c0.98,1.32,2.67,2.31,5.05,2.98
		c-2.39,0.65-4.07,1.64-5.05,2.96c-0.98,1.32-1.45,2.06-1.41,2.21h15.37l3.19-4.17h12.33v20.26l-11.37-5.58
		c-0.24-0.3-0.42-0.55-0.55-0.75c-0.21-0.29-0.33-0.57-0.34-0.85c0.04-0.47,0.37-0.55,0.98-0.26c0.24,0.13,0.43,0.25,0.59,0.38
		c0.16,0.15,0.3,0.31,0.41,0.47l0.08,0.04c0.01-0.77,0.03-1.41,0.06-1.92c-0.38-0.29-0.8-0.56-1.28-0.81c-2.01-0.8-3-0.44-2.96,1.09
		c0.05,0.94,0.4,1.82,1.04,2.64c0.25,0.36,0.53,0.75,0.85,1.15c0.36,0.47,0.55,0.85,0.57,1.15c-0.04,0.48-0.35,0.57-0.94,0.28
		c-0.38-0.19-0.7-0.4-0.96-0.64c-0.16-0.16-0.31-0.35-0.45-0.55l-0.08-0.04c-0.03,0.82-0.04,1.46-0.06,1.92
		c0.48,0.43,1.07,0.82,1.77,1.19c1.84,0.82,2.81,0.48,2.92-1c0-0.33-0.05-0.65-0.15-0.96l8.73,4.28l-6.69,2.81
		c0.4-1.48,0.67-2.46,0.81-2.94c0.13-0.47,0.21-0.72,0.26-0.75v-0.08l-1.09,0.45l-1.09,0.47v0.06c0.14-0.18-0.07,0.75-0.62,2.77
		c-0.18,0.67-0.31,1.21-0.4,1.64l-0.02,0.02c-0.21-0.41-0.47-0.84-0.75-1.28c-0.65-0.9-1.11-1.51-1.36-1.83l-0.28,0.13
		c-0.27,0.57-0.69,1.53-1.28,2.88c-0.35,0.79-0.62,1.45-0.81,1.98l-0.02,0.02c-0.1-0.36-0.25-0.84-0.45-1.43
		c-0.54-1.47-0.74-2.19-0.58-2.17v-0.08l-1.17,0.49l-1.23,0.51v0.06c0.05-0.01,0.15,0.17,0.3,0.55c0.14,0.38,0.42,1.17,0.85,2.38
		l1.64,4.62l0.28-0.11c1.02-2.34,1.68-3.89,2-4.64c0.3-0.77,0.48-1.26,0.55-1.49h0.02c0.06,0.18,0.24,0.52,0.55,1.02
		c0.3,0.49,0.95,1.5,1.96,3.02l0.26-0.13l1.11-4.09l8.41-3.54v6.62c-1.43,0.69-2.19,1.87-2.28,3.54c0.21,2.36,1.51,3.66,3.89,3.89
		c2.36-0.23,3.66-1.52,3.89-3.89c-0.09-1.67-0.85-2.85-2.3-3.54v-5.79l6.77,3.3c0,1.28-0.01,2.12-0.02,2.51
		c-0.01,0.39-0.05,0.57-0.11,0.53v0.08l1.04,0.51l1.13,0.57V69.9c-0.08-0.02-0.12-0.27-0.13-0.74c-0.01-0.47-0.02-1.42-0.02-2.87
		c0-0.24-0.01-0.58-0.02-1.02l0.02,0.02c0.63,0.94,1.19,1.75,1.68,2.43c0.68,0.96,1.87,2.58,3.58,4.89l0.28,0.13v-5.11
		c0-1.46,0.01-2.41,0.02-2.87c0.01-0.44,0.05-0.64,0.11-0.6v-0.08l-1.02-0.49l-1.15-0.59v0.08c0.08,0.02,0.12,0.26,0.13,0.72
		c0.01,0.44,0.02,1.35,0.02,2.72c0,0.32,0.01,0.74,0.02,1.26l-0.04-0.02c-0.57-0.85-1.09-1.63-1.56-2.32
		c-0.68-0.97-1.91-2.65-3.68-5.04l-0.28-0.13V64l-6.77-3.32V60.3l11.41-4.81c0,1.41-0.01,2.33-0.02,2.77
		c-0.01,0.45-0.05,0.68-0.11,0.7v0.08l2.64-1.11L94.08,57c0-0.47,0.01-1.08,0.02-1.85l-0.08,0.02c-0.09,0.14-0.38,0.31-0.87,0.51
		l-1.68,0.7c-0.06-0.04-0.09-0.12-0.08-0.25v-1.53l1.24-0.51c0.6-0.26,0.93-0.36,0.96-0.3l0.06-0.04v-1.85l-0.06,0.02
		c-0.02,0.08-0.35,0.24-0.98,0.49l-1.23,0.51v-1.73l1.21-0.49c0.74-0.31,1.18-0.45,1.32-0.4L94,50.27c0-0.73,0-1.35,0-1.85
		l-2.34,0.98l-2.45,1.02v0.06c0.06-0.02,0.1,0.17,0.11,0.59c0.02,0.43,0.03,1.31,0.02,2.64l-11.41,4.81V38.88h21.75
		c-0.63,0.89-1,1.75-1.11,2.57c-0.13,0.82-0.17,1.25-0.13,1.3c1.96-1.78,4.1-3.05,6.43-3.79C107.18,38.21,108.44,37.85,108.66,37.88
		h-0.02H108.66 M59.89,14.55c-0.74-0.46-1.13-0.8-1.17-1l1.13,0.49c-0.77-0.72-1.16-1.17-1.17-1.36c1.55,0.92,2.44,1.73,2.68,2.43
		c0.24,0.72,0.32,1.09,0.25,1.13C61.16,15.37,60.59,14.8,59.89,14.55 M50.98,33.52l2.68,3.53l-1.19-3.53l2.68,3.53l-1.19-3.53
		l2.68,3.53l-1.17-3.53l2.66,3.53l-1.17-3.53l2.53,3.34l0.15,0.19l-0.08-0.19l-1.11-3.34l2.53,3.34l0.17,0.23h-9.79l0.02-0.06
		c-0.26-0.01-0.51-0.03-0.74-0.06l-1.15-3.45l2.66,3.53L50.98,33.52 M46.99,34.99l-0.49-1.47l2.13,2.81
		C47.84,35.85,47.29,35.41,46.99,34.99 M48.99,36.52l-1-3l2.62,3.45C49.99,36.88,49.45,36.73,48.99,36.52 M75.6,56.11l1.45-1.74
		v1.49L75.6,56.11 M77.05,56.24v1.49l-1.45,0.25L77.05,56.24 M75.6,54.25l1.45-1.73V54L75.6,54.25 M75.6,52.38l1.45-1.73v1.49
		L75.6,52.38 M75.6,50.51l1.45-1.74v1.49L75.6,50.51 M75.6,48.65l1.45-1.74v1.49L75.6,48.65 M75.6,46.78l1.45-1.76v1.51L75.6,46.78
		 M75.6,44.91l1.45-1.75v1.51L75.6,44.91 M75.6,43.04l1.45-1.75v1.51L75.6,43.04 M75.6,41.18l1.45-1.75v1.49L75.6,41.18
		 M79.14,71.82c-0.04,0.96-0.42,1.7-1.15,2.24c0.35-0.48,0.53-1.02,0.55-1.64c-0.15-1.71-1.08-2.64-2.79-2.79
		c-0.63,0-1.18,0.18-1.64,0.53c0.18-0.24,0.39-0.45,0.64-0.62c0.47-0.34,1-0.51,1.6-0.51c0.6,0.01,1.13,0.18,1.58,0.51
		C78.7,70.07,79.1,70.83,79.14,71.82 M77.05,65.58v1.51l-1.45,0.25L77.05,65.58 M75.6,65.47l1.45-1.75v1.51L75.6,65.47 M76.05,59.32
		l1-1.21v0.77L76.05,59.32 M81.57,15.81c-0.28,1.32-0.35,2.05-0.21,2.19c1.19-2.48,2.43-3.84,3.72-4.07
		c0.82-0.23,1.37-0.32,1.66-0.28c0.05,0,0.09,0,0.11,0h0.11c3.54,0.24,6.25,0.91,8.11,2.02c1.86,1.11,2.83,1.77,2.92,1.98l0.45,0.47
		c-0.78,0.21-1.2,0.38-1.26,0.49c0.99,0.7,1.57,1.43,1.74,2.17c0.16,0.73,0.22,1.13,0.17,1.19l0.04-0.08c0.15,1.05,0.39,2,0.74,2.83
		c-0.05,0.01-0.1,0.02-0.15,0.02c-0.58-0.18-0.96-0.45-1.15-0.81l-0.09-0.17l-0.17-0.17c-0.95-0.98-1.93-1.65-2.92-2
		c0.6-0.73,0.96-1.11,1.06-1.15c-0.64,0.26-1.22,0.59-1.73,0.98c-0.08-0.03-0.15-0.04-0.23-0.06c0.73-1.02,1.18-1.56,1.36-1.62
		c-0.94,0.42-1.76,0.92-2.45,1.51c0.3-0.57,0.63-1.03,0.98-1.4c0.35-0.36,0.55-0.55,0.58-0.57c-1.22,0.57-2.21,1.22-2.98,1.96
		c-0.75,0.74-1.15,1.15-1.17,1.23l0.08-0.02c-0.28,0.24-0.52,0.51-0.74,0.83l-0.9,1.3l-1.36,1.87l-0.06,0.04l-0.23,0.36l-0.06,0.08
		h0.02l-0.08,0.13c-0.38,0.65-0.73,1.29-1.06,1.91l0.11-1.91l0.06-0.83l0.21-3.55c0,0.11-0.26,0.68-0.77,1.7
		c-0.52,1.03-1.34,1.84-2.47,2.42c-0.69,0.1-1.43,0.15-2.23,0.15c-1.95-0.05-3.61-0.24-5-0.57c-1.4-0.33-2.13-0.52-2.21-0.57
		l-0.6-0.21c0.08-0.11,0.14-0.23,0.19-0.34c1.6,0.38,3.2,0.62,4.81,0.72c1.8,0.1,3.59,0.08,5.37-0.06
		c-1.79-0.03-3.56-0.17-5.32-0.43c-1.52-0.24-3.01-0.6-4.47-1.07c0.04-0.1,0.07-0.19,0.09-0.28c1.22,0.28,2.45,0.47,3.68,0.58
		c1.32,0.14,2.64,0.19,3.96,0.15c-1.32-0.13-2.62-0.34-3.89-0.64c-1.21-0.26-2.38-0.6-3.51-1.02c0.01-0.09,0.03-0.17,0.04-0.25
		c0.89,0.25,1.8,0.43,2.72,0.55c0.99,0.16,1.97,0.15,2.94-0.04c-0.98,0.01-1.93-0.13-2.85-0.43c-0.92-0.29-1.8-0.64-2.66-1.05
		l-0.04,0.13c0.01-0.28,0.01-0.42,0-0.43c-1.08,2.11-2.24,3.46-3.49,4.04c-0.26,0.11-0.55,0.26-0.85,0.45
		c-0.06,0.03-0.09,0.04-0.09,0.04h0.04c-0.21,0.14-0.43,0.29-0.64,0.47l-1.68,1.13c-0.69,0.45-1.27,0.98-1.74,1.58
		c0.4-1.07,0.67-2.08,0.81-3.04l2.62-1.79l-2.51,0.85c0.02-0.26,0.04-0.52,0.06-0.77l3.58-2.17l-3.58,1.15
		c-0.01-0.3-0.03-0.58-0.06-0.85l8.18-3.64l-8.34,2.64c-0.09-0.47-0.14-0.72-0.17-0.77l-0.02-0.06c3.66-1.11,6.83-2.15,9.52-3.13
		C78.95,16.83,80.72,16.16,81.57,15.81 M67.94,36.86c-0.29-0.44-0.63-0.76-1.02-0.96c-0.35-0.93-0.46-2.01-0.32-3.24
		c0.15-1.24,0.91-2.36,2.28-3.36l2.34,7.56H67.94 M74.92,36.86c-0.49-0.73-1.05-1.18-1.68-1.34c-0.58-1.16-0.95-2.49-1.11-4
		c-0.18-1.52,0.3-2.86,1.41-4.02c0.06,0.05,0.84,0.25,2.34,0.6c1.5,0.36,3.31,0.57,5.45,0.62c1.11,0.01,2.21-0.09,3.32-0.3
		c0,0.14-0.08,1.11-0.24,2.9c-0.16,1.81-0.39,3.65-0.68,5.53H74.92 M100.96,36.91c-0.04-0.01-0.23-0.18-0.58-0.51
		c-0.36-0.33-0.62-0.74-0.75-1.23c0.08,0.09,0.69,0.49,1.83,1.21c1.14,0.72,2.41,1.19,3.81,1.43c-0.09,0.02-0.62,0-1.59-0.08
		C102.71,37.67,101.8,37.39,100.96,36.91"/>
	<g>
		<path class="st1" d="M131.39,91.89c-0.41,0-0.79,0-1.22,0c-0.69-1.93-1.3-3.89-1.99-5.83c-0.04,0-0.07,0-0.11,0
			c-0.63,1.94-1.26,3.87-1.9,5.82c-0.43,0-0.82,0-1.25,0c-0.16-0.61-0.32-1.2-0.48-1.79c-0.54-2.02-1.08-4.04-1.63-6.06
			c-0.21-0.77-0.44-1.55-0.82-2.26c-0.03-0.05-0.03-0.1-0.06-0.19c0.79,0,1.56,0,2.35,0c-0.04,0.26-0.11,0.52-0.11,0.76
			c0.02,0.46,0.03,0.92,0.13,1.36c0.38,1.62,0.79,3.23,1.19,4.85c0.03,0.1,0.07,0.2,0.14,0.31c0.88-2.44,1.65-4.9,2.55-7.35
			c0.8,2.44,1.6,4.88,2.4,7.32c0.03,0,0.06,0.01,0.08,0.01c0.04-0.12,0.1-0.24,0.13-0.37c0.38-1.47,0.75-2.95,1.12-4.42
			c0.2-0.8,0.27-1.61,0.11-2.42c0.28-0.1,1.76-0.13,2.34-0.05c0,0.03,0.02,0.06,0.01,0.08c-0.66,1.3-0.96,2.73-1.34,4.12
			c-0.53,1.95-1.05,3.91-1.57,5.86C131.46,91.72,131.43,91.78,131.39,91.89z"/>
		<path class="st1" d="M63.95,86.54c0.12-0.14,0.23-0.26,0.32-0.38c0.87-1.1,1.74-2.21,2.61-3.32c0.3-0.38,0.58-0.79,0.71-1.28
			c0.7,0,1.38,0,2.11,0c-0.07,0.13-0.11,0.23-0.17,0.32c-0.42,0.71-0.6,1.49-0.61,2.3c-0.01,1.74,0,3.48,0,5.21
			c0,0.74,0.08,1.46,0.26,2.17c0.02,0.09,0.03,0.19,0.05,0.3c-0.73,0-1.44,0-2.19,0c0.06-0.28,0.13-0.53,0.16-0.78
			c0.07-0.6,0.15-1.2,0.16-1.8c0.02-1.49,0.01-2.99,0.01-4.48c0-0.1-0.02-0.19-0.03-0.38c-0.64,0.75-1.17,1.49-1.73,2.21
			c-0.57,0.72-1.12,1.45-1.71,2.23c-1.16-1.38-2.26-2.78-3.4-4.15c-0.03,0.01-0.07,0.03-0.1,0.04c0,0.14,0,0.27,0,0.41
			c0,1.05,0.01,2.1,0,3.14c-0.01,1.18,0.02,2.35,0.34,3.5c-0.3,0.1-1.68,0.12-2.17,0.04c0.08-0.49,0.17-0.98,0.22-1.47
			c0.05-0.41,0.07-0.83,0.07-1.25c0.01-1.98,0-3.96,0.01-5.94c0-0.31-0.07-0.55-0.29-0.77c-0.25-0.25-0.46-0.54-0.73-0.86
			c0.83,0,1.57,0,2.34,0c0.09,0.51,0.41,0.88,0.72,1.25c0.92,1.12,1.83,2.25,2.74,3.38C63.74,86.31,63.83,86.41,63.95,86.54z"/>
		<path class="st1" d="M144.75,91.88c-0.68,0-1.33,0-1.98,0c-1.04-1.89-2.49-3.45-3.74-5.17c-0.36-0.5-0.75-0.98-1.13-1.47
			c-0.09-0.12-0.2-0.24-0.34-0.41c-0.02,0.18-0.03,0.28-0.03,0.39c0,1.36,0,2.73,0,4.09c0,0.79,0.09,1.57,0.28,2.34
			c0.02,0.07,0.03,0.13,0.05,0.23c-0.68,0-1.33,0-1.99,0c0.08-0.49,0.17-0.95,0.22-1.42c0.05-0.44,0.07-0.89,0.08-1.33
			c0.01-1.9,0-3.79,0.01-5.69c0-0.29-0.07-0.53-0.26-0.74c-0.31-0.35-0.6-0.72-0.94-1.12c0.12-0.01,0.21-0.03,0.3-0.03
			c0.57,0,1.15,0,1.72,0c0.16,0,0.3,0.01,0.4,0.18c0.77,1.44,1.82,2.68,2.8,3.97c0.87,1.14,1.75,2.27,2.63,3.41
			c0.05,0.07,0.11,0.13,0.21,0.24c0.03-0.16,0.07-0.26,0.07-0.36c-0.01-1.91-0.02-3.82-0.06-5.73c-0.01-0.44-0.13-0.88-0.2-1.32
			c-0.02-0.11-0.04-0.22-0.06-0.37c0.67,0,1.3,0,1.99,0c-0.06,0.28-0.14,0.54-0.17,0.81c-0.07,0.67-0.15,1.34-0.16,2.01
			c-0.02,1.64-0.02,3.27,0,4.91c0.01,0.8,0.06,1.61,0.26,2.39C144.73,91.75,144.73,91.8,144.75,91.88z"/>
		<path class="st1" d="M110.43,86.69c-0.05-2.72,1.9-4.69,4.07-5.15c1.56-0.33,3.06-0.2,4.39,0.79c1.24,0.92,1.92,2.17,2.1,3.71
			c0.12,0.97,0.05,1.92-0.34,2.83c-0.74,1.73-2.07,2.75-3.9,3.11c-1.03,0.2-2.06,0.18-3.05-0.22c-1.73-0.7-2.75-2.01-3.13-3.82
			C110.49,87.52,110.48,87.1,110.43,86.69z M119.37,87.1c-0.01-0.98-0.2-1.86-0.68-2.65c-0.68-1.11-1.64-1.79-2.97-1.85
			c-1.62-0.06-3.02,1.02-3.43,2.64c-0.16,0.63-0.18,1.27-0.1,1.92c0.14,1.11,0.58,2.07,1.41,2.82c1.41,1.28,3.72,1.18,4.94-0.38
			C119.12,88.84,119.35,87.98,119.37,87.1z"/>
		<path class="st1" d="M7.73,81.57c0.77,0,1.48,0,2.24,0c-0.42,1.45-0.34,2.9-0.33,4.38c1.5,0,2.95,0,4.46,0
			c0.04-1.46,0.05-2.9-0.31-4.31c0.29-0.11,1.59-0.14,2.18-0.05c-0.07,0.45-0.17,0.89-0.22,1.34c-0.05,0.44-0.08,0.89-0.08,1.33
			c-0.01,1.44,0,2.87-0.01,4.31c-0.01,1.11,0.02,2.21,0.35,3.31c-0.75,0-1.47,0-2.23,0c0.4-1.52,0.35-3.03,0.33-4.54
			c-0.34-0.1-3.8-0.13-4.4-0.05c-0.18,0.62-0.04,3.21,0.25,4.55c-0.32,0.08-1.78,0.09-2.19,0c0.05-0.26,0.13-0.52,0.16-0.79
			c0.07-0.63,0.15-1.26,0.16-1.88c0.02-1.62,0.01-3.24,0-4.87C8.07,83.41,7.98,82.51,7.73,81.57z"/>
		<path class="st1" d="M45.71,91.89c-0.78,0-1.55,0-2.36,0c-0.08-1.14-0.51-2.15-0.98-3.16c-1.29,0-2.58,0-3.85,0
			c-0.38,0.72-0.56,1.37-0.91,3.16c-0.77,0-1.55,0-2.34,0c0.01-0.05,0.01-0.08,0.03-0.1c0.88-1.1,1.42-2.39,2.02-3.64
			c1.02-2.15,2.02-4.31,3.04-6.46c0.04-0.08,0.08-0.15,0.15-0.28c0.07,0.13,0.12,0.23,0.17,0.32c1.13,2.4,2.25,4.8,3.39,7.2
			c0.47,0.98,0.92,1.98,1.6,2.84C45.68,91.78,45.69,91.83,45.71,91.89z M39.08,87.35c0.45,0.11,2.38,0.1,2.7-0.02
			c-0.44-1-0.87-2.01-1.31-3.01c-0.03,0-0.06,0-0.1,0C39.95,85.33,39.52,86.33,39.08,87.35z"/>
		<path class="st1" d="M22.38,81.4c0.11,0.2,0.18,0.33,0.25,0.47c1.14,2.43,2.28,4.86,3.43,7.28c0.43,0.91,0.86,1.82,1.49,2.61
			c0.02,0.03,0.03,0.07,0.05,0.13c-0.79,0-1.55,0-2.3,0c-0.14-0.56-0.24-1.11-0.41-1.64c-0.17-0.52-0.4-1.01-0.6-1.52
			c-1.3,0-2.58,0-3.9,0c-0.43,0.99-0.77,2.01-0.85,3.11c-0.3,0.1-1.58,0.12-2.42,0.05c0.06-0.09,0.11-0.16,0.17-0.23
			c0.57-0.69,0.96-1.49,1.35-2.3c1.16-2.44,2.3-4.88,3.45-7.32C22.16,81.84,22.26,81.65,22.38,81.4z M22.38,84.33
			c-0.04,0-0.07,0-0.11,0c-0.42,1.01-0.88,2-1.3,3.07c0.93,0,1.79,0,2.73,0C23.25,86.34,22.81,85.34,22.38,84.33z"/>
		<path class="st1" d="M83.03,81.39c0.19,0.4,0.36,0.76,0.53,1.12c1.17,2.48,2.34,4.95,3.52,7.43c0.32,0.67,0.69,1.32,1.18,1.9
			c-0.31,0.08-1.69,0.11-2.39,0.04c-0.05-1.13-0.51-2.14-0.98-3.16c-1.3,0-2.57,0-3.88,0c-0.42,1.01-0.8,2.02-0.83,3.16
			c-0.81,0-1.6,0-2.43,0c0.21-0.28,0.43-0.53,0.58-0.82c0.47-0.87,0.94-1.74,1.36-2.64c1.06-2.23,2.1-4.46,3.15-6.7
			C82.9,81.63,82.96,81.53,83.03,81.39z M84.31,87.33c-0.15-0.34-0.29-0.68-0.44-1.02c-0.15-0.34-0.29-0.69-0.44-1.03
			c-0.15-0.32-0.24-0.68-0.48-0.99c-0.44,0.81-1.25,2.77-1.28,3.08C82.19,87.46,83.96,87.44,84.31,87.33z"/>
		<path class="st1" d="M71.27,91.89c0.01-0.13,0.02-0.21,0.04-0.29c0.16-0.64,0.24-1.29,0.24-1.96c0-1.94,0-3.88,0-5.81
			c0-0.65-0.09-1.29-0.24-1.92c-0.02-0.09-0.02-0.19-0.03-0.29c0.33-0.08,5.09-0.1,5.6-0.01c-0.2,0.54-0.48,1.04-0.74,1.6
			c-0.93-0.51-1.93-0.62-2.98-0.57c0,1.15,0,2.26,0,3.43c0.57,0,1.12,0.01,1.68,0.01c0.54,0,1.09,0,1.71,0
			c-0.29,0.58-0.6,1.09-0.92,1.64c-0.76-0.43-1.57-0.56-2.4-0.54c-0.11,0.31-0.14,2.93-0.04,3.62c1.49,0.01,2.95-0.17,4.4-0.89
			c-0.29,0.71-0.56,1.34-0.82,1.98C74.92,91.89,73.12,91.89,71.27,91.89z"/>
		<path class="st1" d="M104.91,82.66c-0.69-0.02-1.56-0.02-3.15,0.52c-0.02-0.02-0.06-0.05-0.05-0.06c0.15-0.46,0.29-0.93,0.44-1.39
			c0.04-0.12,0.13-0.18,0.26-0.18c0.07,0,0.14,0,0.22,0c2.21,0,4.42,0,6.63,0c0.13,0,0.25,0.01,0.43,0.02
			c-0.16,0.55-0.31,1.07-0.47,1.61c-0.46-0.14-0.89-0.3-1.33-0.41c-0.44-0.11-0.89-0.22-1.37-0.17c-0.01,0.1-0.03,0.18-0.03,0.26
			c0,2.3-0.01,4.59,0.03,6.89c0.01,0.7,0.18,1.39,0.27,2.09c-0.26,0.08-1.78,0.09-2.21,0.01c0.08-0.36,0.18-0.72,0.22-1.09
			c0.07-0.63,0.13-1.26,0.14-1.89c0.02-1.92,0.01-3.85,0.01-5.77C104.94,82.96,104.92,82.81,104.91,82.66z"/>
		<path class="st1" d="M92.08,82.64c-1.12,0-2.17,0.17-3.27,0.6c0.21-0.62,0.39-1.14,0.57-1.67c2.5,0,4.96,0,7.48,0
			c-0.16,0.55-0.31,1.06-0.47,1.62c-0.89-0.28-1.74-0.61-2.7-0.59c-0.01,0.14-0.03,0.25-0.03,0.36c0,2.11,0,4.22,0,6.33
			c0,0.79,0.11,1.57,0.31,2.34c0.02,0.07,0.03,0.14,0.04,0.21c-0.3,0.1-1.44,0.13-2.26,0.05c0.02-0.12,0.03-0.24,0.06-0.36
			c0.22-0.75,0.28-1.53,0.29-2.3c0.02-2.07,0.01-4.13,0.01-6.2C92.11,82.91,92.09,82.8,92.08,82.64z"/>
		<path class="st1" d="M30.74,90.8c1.41-0.03,2.74-0.23,4.07-0.89c-0.29,0.71-0.56,1.34-0.82,1.98c-1.7,0-3.39,0-5.12,0
			c0-0.1-0.01-0.2,0.02-0.29c0.18-0.71,0.25-1.44,0.25-2.17c0-1.9,0.01-3.79-0.02-5.69c-0.01-0.58-0.14-1.16-0.21-1.75
			c-0.02-0.12-0.04-0.25-0.07-0.41c0.73,0,1.43,0,2.14,0c0,0.1,0.02,0.18,0,0.26c-0.2,0.76-0.26,1.53-0.26,2.3c0,2.1,0,4.19,0,6.29
			C30.72,90.53,30.73,90.63,30.74,90.8z"/>
		<path class="st1" d="M46.96,81.57c0.74,0,1.43,0,2.17,0c-0.03,0.16-0.06,0.31-0.09,0.46c-0.15,0.69-0.22,1.39-0.22,2.09
			c0,2.1,0,4.19,0,6.29c0,0.11,0.01,0.22,0.03,0.38c1.4-0.02,2.73-0.22,4.05-0.89c-0.25,0.71-0.53,1.33-0.81,1.97
			c-1.7,0-3.4,0-5.14,0c0.06-0.33,0.15-0.64,0.18-0.94c0.06-0.66,0.13-1.31,0.14-1.97c0.02-1.45,0.02-2.9,0-4.35
			c-0.01-0.95-0.04-1.89-0.3-2.82C46.97,81.74,46.97,81.68,46.96,81.57z"/>
	</g>
</g>
</svg>
